<?xml version="1.0" encoding="iso-8859-1"?>
<!-- Generator: Adobe Illustrator 19.0.0, SVG Export Plug-In . SVG Version: 6.00 Build 0)  -->
<svg version="1.1" id="Layer_1" xmlns="http://www.w3.org/2000/svg" xmlns:xlink="http://www.w3.org/1999/xlink" x="0px" y="0px"
	 viewBox="0 0 512 512" style="enable-background:new 0 0 512 512;" xml:space="preserve">
<path style="fill:#D81B60;" d="M392.533,162.133v332.8H119.467v-332.8H153.6v25.6c0,4.693,3.84,8.533,8.533,8.533
	c4.693,0,8.533-3.84,8.533-8.533v-25.6h170.667v25.6c0,4.693,3.84,8.533,8.533,8.533c4.693,0,8.533-3.84,8.533-8.533v-25.6H392.533z
	"/>
<polygon style="fill:#AD1457;" points="366.933,162.133 366.933,469.333 119.467,469.333 119.467,494.933 392.533,494.933 
	392.533,162.133 "/>
<path d="M207.727,275.994c-26.615,26.615-26.615,69.922,0,96.538c13.312,13.312,30.788,19.959,48.273,19.959
	s34.97-6.656,48.273-19.959c26.615-26.615,26.615-69.922,0-96.538C277.658,249.378,234.342,249.378,207.727,275.994z
	 M292.207,360.474c-19.968,19.942-52.446,19.959-72.414,0c-19.959-19.959-19.959-52.446,0-72.405
	c9.984-9.975,23.091-14.967,36.207-14.967c13.107,0,26.223,4.992,36.207,14.967C312.166,308.028,312.166,340.506,292.207,360.474z"
	/>
<path d="M280.132,315.733h-15.599v-15.607c0-4.71-3.814-8.533-8.533-8.533c-4.719,0-8.533,3.823-8.533,8.533v15.607h-15.599
	c-4.719,0-8.533,3.823-8.533,8.533s3.814,8.533,8.533,8.533h15.599v15.607c0,4.71,3.814,8.533,8.533,8.533
	c4.719,0,8.533-3.823,8.533-8.533V332.8h15.599c4.719,0,8.533-3.823,8.533-8.533S284.851,315.733,280.132,315.733z"/>
<path d="M401.067,145.067H358.4V102.4C358.4,45.935,312.465,0,256,0S153.6,45.935,153.6,102.4v42.667h-42.667
	c-4.71,0-8.533,3.823-8.533,8.533v349.867c0,4.71,3.823,8.533,8.533,8.533h290.133c4.71,0,8.533-3.823,8.533-8.533V153.6
	C409.6,148.89,405.777,145.067,401.067,145.067z M170.667,102.4c0-47.053,38.281-85.333,85.333-85.333s85.333,38.281,85.333,85.333
	v42.667H170.667V102.4z M392.533,494.933H119.467v-332.8H153.6v25.6c0,4.71,3.823,8.533,8.533,8.533s8.533-3.823,8.533-8.533v-25.6
	h170.667v25.6c0,4.71,3.823,8.533,8.533,8.533c4.71,0,8.533-3.823,8.533-8.533v-25.6h34.133V494.933z"/>
<path style="fill:#FFFFFF;" d="M292.181,288.111c-9.984-9.984-23.04-15.019-36.181-15.019c-13.141,0-26.197,5.035-36.181,15.019
	c-19.968,19.968-19.968,52.395,0,72.363c19.968,19.968,52.395,19.968,72.363,0C312.149,340.497,312.149,308.07,292.181,288.111z
	 M280.149,332.826h-15.616v15.616c0,4.693-3.84,8.533-8.533,8.533c-4.693,0-8.533-3.84-8.533-8.533v-15.616h-15.616
	c-4.693,0-8.533-3.84-8.533-8.533s3.84-8.533,8.533-8.533h15.616v-15.616c0-4.693,3.84-8.533,8.533-8.533
	c4.693,0,8.533,3.84,8.533,8.533v15.616h15.616c4.693,0,8.533,3.84,8.533,8.533S284.843,332.826,280.149,332.826z"/>
<path style="fill:#F4F4F4;" d="M292.181,288.111c-3.268-3.268-6.955-5.811-10.778-8.021c19.49,20.002,19.388,52.036-0.418,71.842
	c-16.708,16.708-42.052,19.243-61.611,7.996c0.171,0.171,0.273,0.375,0.444,0.546c19.968,19.968,52.395,19.968,72.363,0
	C312.149,340.497,312.149,308.07,292.181,288.111z"/>
<g>
</g>
<g>
</g>
<g>
</g>
<g>
</g>
<g>
</g>
<g>
</g>
<g>
</g>
<g>
</g>
<g>
</g>
<g>
</g>
<g>
</g>
<g>
</g>
<g>
</g>
<g>
</g>
<g>
</g>
</svg>
